<mxfile host="65bd71144e" scale="1" border="20" disableSvgWarning="true">
    <diagram id="6C7H3yObjbz9tDbwz1cg" name="PÃ¡gina-1">
        <mxGraphModel dx="1113" dy="962" grid="1" gridSize="10" guides="1" tooltips="1" connect="1" arrows="1" fold="1" page="1" pageScale="1" pageWidth="827" pageHeight="1169" background="#FFFFFF" math="0" shadow="0">
            <root>
                <mxCell id="0"/>
                <mxCell id="1" parent="0"/>
                <mxCell id="177" value="run" style="html=1;align=center;verticalAlign=top;rounded=1;absoluteArcSize=1;arcSize=10;dashed=0;labelBackgroundColor=default;strokeWidth=3;fontFamily=Courier New;fontSize=12;sketch=1;curveFitting=1;jiggle=2;" vertex="1" parent="1">
                    <mxGeometry x="160" y="365" width="650" height="505" as="geometry"/>
                </mxCell>
                <mxCell id="178" style="edgeStyle=orthogonalEdgeStyle;html=1;entryX=0.5;entryY=0;entryDx=0;entryDy=0;strokeWidth=3;fontFamily=Courier New;fontSize=12;endArrow=none;endFill=0;sketch=1;curveFitting=1;jiggle=2;" edge="1" parent="1" source="177" target="107">
                    <mxGeometry relative="1" as="geometry"/>
                </mxCell>
                <mxCell id="179" style="edgeStyle=orthogonalEdgeStyle;html=1;exitX=0.5;exitY=1;exitDx=0;exitDy=0;entryX=0.5;entryY=0;entryDx=0;entryDy=0;entryPerimeter=0;strokeWidth=3;fontFamily=Courier New;fontSize=12;endArrow=none;endFill=0;sketch=1;curveFitting=1;jiggle=2;" edge="1" parent="1" source="177" target="138">
                    <mxGeometry relative="1" as="geometry"/>
                </mxCell>
                <mxCell id="97" value="terminal" style="shape=actor;whiteSpace=wrap;html=1;fontFamily=Courier New;fontSize=12;rounded=0;fontStyle=1;strokeWidth=3;align=center;verticalAlign=bottom;sketch=1;curveFitting=1;jiggle=2;" parent="1" vertex="1">
                    <mxGeometry x="305" y="10" width="100" height="100" as="geometry"/>
                </mxCell>
                <mxCell id="99" value="-a&lt;br style=&quot;font-size: 12px;&quot;&gt;--all" style="ellipse;fontFamily=Courier New;fontSize=12;fontColor=rgb(0, 0, 0);align=center;strokeColor=rgb(0, 0, 0);strokeWidth=3;fillColor=rgb(255, 255, 255);html=1;rotation=0;sketch=1;curveFitting=1;jiggle=2;" parent="1" vertex="1">
                    <mxGeometry x="390" y="530" width="100" height="100" as="geometry"/>
                </mxCell>
                <mxCell id="100" value="-c&lt;br style=&quot;font-size: 12px;&quot;&gt;--compilable" style="ellipse;fontFamily=Courier New;fontSize=12;fontColor=rgb(0, 0, 0);align=center;strokeColor=rgb(0, 0, 0);strokeWidth=3;fillColor=rgb(255, 255, 255);html=1;rotation=0;sketch=1;curveFitting=1;jiggle=2;" parent="1" vertex="1">
                    <mxGeometry x="490" y="535" width="100" height="100" as="geometry"/>
                </mxCell>
                <mxCell id="101" value="-d&lt;br style=&quot;font-size: 12px;&quot;&gt;--distro" style="ellipse;fontFamily=Courier New;fontSize=12;fontColor=rgb(0, 0, 0);align=center;strokeColor=rgb(0, 0, 0);strokeWidth=3;fillColor=rgb(255, 255, 255);html=1;rotation=0;sketch=1;curveFitting=1;jiggle=2;" parent="1" vertex="1">
                    <mxGeometry x="590" y="530" width="100" height="100" as="geometry"/>
                </mxCell>
                <mxCell id="102" value="-s&lt;br style=&quot;font-size: 12px;&quot;&gt;--script" style="ellipse;fontFamily=Courier New;fontSize=12;fontColor=rgb(0, 0, 0);align=center;strokeColor=rgb(0, 0, 0);strokeWidth=3;fillColor=rgb(255, 255, 255);html=1;rotation=0;sketch=1;curveFitting=1;jiggle=2;" parent="1" vertex="1">
                    <mxGeometry x="690" y="535" width="100" height="100" as="geometry"/>
                </mxCell>
                <mxCell id="103" value="-h&lt;br style=&quot;font-size: 12px;&quot;&gt;--help" style="ellipse;fontFamily=Courier New;fontSize=12;fontColor=rgb(0, 0, 0);align=center;strokeColor=rgb(0, 0, 0);strokeWidth=3;fillColor=rgb(255, 255, 255);html=1;rotation=0;sketch=1;curveFitting=1;jiggle=2;" parent="1" vertex="1">
                    <mxGeometry x="170" y="530" width="100" height="100" as="geometry"/>
                </mxCell>
                <mxCell id="165" style="edgeStyle=orthogonalEdgeStyle;html=1;entryX=0.321;entryY=1.048;entryDx=0;entryDy=0;entryPerimeter=0;strokeWidth=3;fontFamily=Courier New;fontSize=12;endArrow=none;endFill=0;sketch=1;curveFitting=1;jiggle=2;" edge="1" parent="1" source="104" target="159">
                    <mxGeometry relative="1" as="geometry"/>
                </mxCell>
                <mxCell id="166" value="write" style="edgeLabel;html=1;align=center;verticalAlign=middle;resizable=0;points=[];fontSize=12;fontFamily=Courier New;sketch=1;curveFitting=1;jiggle=2;" vertex="1" connectable="0" parent="165">
                    <mxGeometry x="-0.1725" y="4" relative="1" as="geometry">
                        <mxPoint x="1" as="offset"/>
                    </mxGeometry>
                </mxCell>
                <mxCell id="167" style="edgeStyle=orthogonalEdgeStyle;html=1;entryX=0.5;entryY=1;entryDx=0;entryDy=0;strokeWidth=3;fontFamily=Courier New;fontSize=12;endArrow=none;endFill=0;sketch=1;curveFitting=1;jiggle=2;exitX=0.5;exitY=0;exitDx=0;exitDy=0;" edge="1" parent="1" source="104" target="133">
                    <mxGeometry relative="1" as="geometry"/>
                </mxCell>
                <mxCell id="168" style="edgeStyle=orthogonalEdgeStyle;html=1;exitX=0.5;exitY=0;exitDx=0;exitDy=0;entryX=0.5;entryY=1;entryDx=0;entryDy=0;strokeWidth=3;fontFamily=Courier New;fontSize=12;endArrow=none;endFill=0;sketch=1;curveFitting=1;jiggle=2;" edge="1" parent="1" source="104" target="99">
                    <mxGeometry relative="1" as="geometry"/>
                </mxCell>
                <mxCell id="171" style="edgeStyle=orthogonalEdgeStyle;html=1;exitX=0.5;exitY=0;exitDx=0;exitDy=0;entryX=0.5;entryY=1;entryDx=0;entryDy=0;strokeWidth=3;fontFamily=Courier New;fontSize=12;endArrow=none;endFill=0;sketch=1;curveFitting=1;jiggle=2;" edge="1" parent="1" source="104" target="102">
                    <mxGeometry relative="1" as="geometry"/>
                </mxCell>
                <mxCell id="173" style="edgeStyle=orthogonalEdgeStyle;html=1;exitX=0.5;exitY=0;exitDx=0;exitDy=0;entryX=0.5;entryY=1;entryDx=0;entryDy=0;strokeWidth=3;fontFamily=Courier New;fontSize=12;endArrow=none;endFill=0;sketch=1;curveFitting=1;jiggle=2;" edge="1" parent="1" source="104" target="100">
                    <mxGeometry relative="1" as="geometry"/>
                </mxCell>
                <mxCell id="175" style="edgeStyle=orthogonalEdgeStyle;html=1;exitX=0.5;exitY=0;exitDx=0;exitDy=0;entryX=0.5;entryY=1;entryDx=0;entryDy=0;strokeWidth=3;fontFamily=Courier New;fontSize=12;endArrow=none;endFill=0;startArrow=none;sketch=1;curveFitting=1;jiggle=2;" edge="1" parent="1" source="176" target="101">
                    <mxGeometry relative="1" as="geometry">
                        <Array as="points">
                            <mxPoint x="465" y="690"/>
                            <mxPoint x="640" y="690"/>
                        </Array>
                    </mxGeometry>
                </mxCell>
                <mxCell id="104" value="software.yml" style="shape=document;whiteSpace=wrap;html=1;boundedLbl=1;fontFamily=Courier New;fontSize=12;rounded=0;fontStyle=1;strokeWidth=3;align=center;verticalAlign=middle;sketch=1;curveFitting=1;jiggle=2;" parent="1" vertex="1">
                    <mxGeometry x="405" y="750" width="120" height="80" as="geometry"/>
                </mxCell>
                <mxCell id="107" value="install software" style="shape=process;whiteSpace=wrap;html=1;backgroundOutline=1;fontFamily=Courier New;fontSize=12;rounded=0;fontStyle=1;strokeWidth=3;align=center;verticalAlign=middle;sketch=1;curveFitting=1;jiggle=2;" parent="1" vertex="1">
                    <mxGeometry x="240" y="1065" width="200" height="60" as="geometry"/>
                </mxCell>
                <mxCell id="140" style="html=1;exitX=0.5;exitY=0;exitDx=0;exitDy=0;entryX=0.5;entryY=1;entryDx=0;entryDy=0;strokeWidth=3;fontFamily=Courier New;fontSize=12;endArrow=none;endFill=0;edgeStyle=orthogonalEdgeStyle;sketch=1;curveFitting=1;jiggle=2;" parent="1" source="108" target="97" edge="1">
                    <mxGeometry relative="1" as="geometry">
                        <mxPoint x="539" y="272.5" as="targetPoint"/>
                    </mxGeometry>
                </mxCell>
                <mxCell id="152" style="edgeStyle=elbowEdgeStyle;elbow=vertical;html=1;entryX=0.5;entryY=0;entryDx=0;entryDy=0;strokeWidth=3;endArrow=none;endFill=0;fontFamily=Courier New;fontSize=12;sketch=1;curveFitting=1;jiggle=2;" edge="1" parent="1" source="108" target="142">
                    <mxGeometry relative="1" as="geometry"/>
                </mxCell>
                <mxCell id="108" value="python arco_install.py" style="shape=process;whiteSpace=wrap;html=1;backgroundOutline=1;fontFamily=Courier New;fontSize=12;rounded=0;fontStyle=1;strokeWidth=3;align=center;verticalAlign=middle;sketch=1;curveFitting=1;jiggle=2;" parent="1" vertex="1">
                    <mxGeometry x="248.75" y="150" width="212.5" height="60" as="geometry"/>
                </mxCell>
                <mxCell id="133" value="-e&lt;br style=&quot;font-size: 12px;&quot;&gt;--export" style="ellipse;fontFamily=Courier New;fontSize=12;fontColor=rgb(0, 0, 0);align=center;strokeColor=rgb(0, 0, 0);strokeWidth=3;fillColor=rgb(255, 255, 255);html=1;rotation=0;sketch=1;curveFitting=1;jiggle=2;" parent="1" vertex="1">
                    <mxGeometry x="290" y="530" width="100" height="100" as="geometry"/>
                </mxCell>
                <mxCell id="138" value="arco_install.sh" style="strokeWidth=3;html=1;shape=mxgraph.flowchart.document2;whiteSpace=wrap;size=0.25;fontSize=12;fontFamily=Courier New;fontStyle=1;sketch=1;curveFitting=1;jiggle=2;" parent="1" vertex="1">
                    <mxGeometry x="520" y="1065" width="160" height="70" as="geometry"/>
                </mxCell>
                <mxCell id="146" style="edgeStyle=elbowEdgeStyle;elbow=vertical;html=1;entryX=0.5;entryY=0;entryDx=0;entryDy=0;strokeWidth=3;endArrow=none;endFill=0;fontFamily=Courier New;fontSize=12;sketch=1;curveFitting=1;jiggle=2;" edge="1" parent="1" source="142" target="102">
                    <mxGeometry relative="1" as="geometry"/>
                </mxCell>
                <mxCell id="147" style="edgeStyle=elbowEdgeStyle;elbow=vertical;html=1;exitX=0.5;exitY=1;exitDx=0;exitDy=0;entryX=0.5;entryY=0;entryDx=0;entryDy=0;strokeWidth=3;endArrow=none;endFill=0;fontFamily=Courier New;fontSize=12;sketch=1;curveFitting=1;jiggle=2;" edge="1" parent="1" source="142" target="101">
                    <mxGeometry relative="1" as="geometry"/>
                </mxCell>
                <mxCell id="148" style="edgeStyle=elbowEdgeStyle;elbow=vertical;html=1;exitX=0.5;exitY=1;exitDx=0;exitDy=0;entryX=0.5;entryY=0;entryDx=0;entryDy=0;strokeWidth=3;endArrow=none;endFill=0;fontFamily=Courier New;fontSize=12;sketch=1;curveFitting=1;jiggle=2;" edge="1" parent="1" source="142" target="100">
                    <mxGeometry relative="1" as="geometry"/>
                </mxCell>
                <mxCell id="149" style="edgeStyle=elbowEdgeStyle;elbow=vertical;html=1;exitX=0.5;exitY=1;exitDx=0;exitDy=0;entryX=0.5;entryY=0;entryDx=0;entryDy=0;strokeWidth=3;endArrow=none;endFill=0;fontFamily=Courier New;fontSize=12;sketch=1;curveFitting=1;jiggle=2;" edge="1" parent="1" source="142" target="99">
                    <mxGeometry relative="1" as="geometry"/>
                </mxCell>
                <mxCell id="150" style="edgeStyle=elbowEdgeStyle;elbow=vertical;html=1;exitX=0.5;exitY=1;exitDx=0;exitDy=0;entryX=0.5;entryY=0;entryDx=0;entryDy=0;strokeWidth=3;endArrow=none;endFill=0;fontFamily=Courier New;fontSize=12;sketch=1;curveFitting=1;jiggle=2;" edge="1" parent="1" source="142" target="133">
                    <mxGeometry relative="1" as="geometry"/>
                </mxCell>
                <mxCell id="151" style="edgeStyle=elbowEdgeStyle;elbow=vertical;html=1;exitX=0.5;exitY=1;exitDx=0;exitDy=0;entryX=0.5;entryY=0;entryDx=0;entryDy=0;strokeWidth=3;endArrow=none;endFill=0;fontFamily=Courier New;fontSize=12;sketch=1;curveFitting=1;jiggle=2;" edge="1" parent="1" source="142" target="103">
                    <mxGeometry relative="1" as="geometry"/>
                </mxCell>
                <mxCell id="158" value="read" style="html=1;exitX=0;exitY=0.5;exitDx=0;exitDy=0;entryX=0.5;entryY=0;entryDx=0;entryDy=0;dashed=1;strokeWidth=3;fontFamily=Courier New;fontSize=12;endArrow=none;endFill=0;edgeStyle=orthogonalEdgeStyle;sketch=1;curveFitting=1;jiggle=2;" edge="1" parent="1" source="142" target="159">
                    <mxGeometry relative="1" as="geometry">
                        <mxPoint x="670" y="400" as="targetPoint"/>
                    </mxGeometry>
                </mxCell>
                <mxCell id="142" value="Select&lt;br style=&quot;font-size: 12px;&quot;&gt;any" style="rhombus;fontFamily=Courier New;fontSize=12;fontColor=rgb(0, 0, 0);align=center;strokeColor=rgb(0, 0, 0);strokeWidth=3;fillColor=rgb(255, 255, 255);html=1;sketch=1;curveFitting=1;jiggle=2;" vertex="1" parent="1">
                    <mxGeometry x="295" y="250" width="120" height="70" as="geometry"/>
                </mxCell>
                <mxCell id="159" value="software.csv&lt;br style=&quot;font-size: 12px;&quot;&gt;software.bak.yml" style="shape=document;whiteSpace=wrap;html=1;boundedLbl=1;fontFamily=Courier New;fontSize=12;rounded=0;fontStyle=1;strokeWidth=3;align=center;verticalAlign=middle;sketch=1;curveFitting=1;jiggle=2;" vertex="1" parent="1">
                    <mxGeometry x="10" y="600" width="130" height="80" as="geometry"/>
                </mxCell>
                <mxCell id="180" value="" style="edgeStyle=orthogonalEdgeStyle;html=1;exitX=0.5;exitY=0;exitDx=0;exitDy=0;entryX=0.5;entryY=1;entryDx=0;entryDy=0;strokeWidth=3;fontFamily=Courier New;fontSize=12;endArrow=none;endFill=0;sketch=1;curveFitting=1;jiggle=2;" edge="1" parent="1" source="104" target="176">
                    <mxGeometry relative="1" as="geometry">
                        <mxPoint x="465" y="750" as="sourcePoint"/>
                        <mxPoint x="640" y="630" as="targetPoint"/>
                    </mxGeometry>
                </mxCell>
                <mxCell id="176" value="read" style="text;html=1;align=center;verticalAlign=middle;resizable=0;points=[];autosize=1;fontSize=12;fontFamily=Courier New;labelBackgroundColor=default;sketch=1;curveFitting=1;jiggle=2;" vertex="1" parent="1">
                    <mxGeometry x="440" y="710" width="50" height="30" as="geometry"/>
                </mxCell>
            </root>
        </mxGraphModel>
    </diagram>
</mxfile>